<svg width="10" height="6" viewBox="0 0 10 6" fill="none" xmlns="http://www.w3.org/2000/svg">
<rect width="10" height="6" fill="#F5F5F5"/>
<g id="Dashboard" clip-path="url(#clip0_0_1)">
<rect width="1440" height="1357" transform="translate(-673 -942)" fill="#FCFCFC"/>
<g id="Invoices" filter="url(#filter0_d_0_1)">
<g clip-path="url(#clip1_0_1)">
<rect x="-360" y="-88" width="1096" height="457" rx="8" fill="white" shape-rendering="crispEdges"/>
<g id="Invoices_2">
<g clip-path="url(#clip2_0_1)">
<g id="Table Header">
<mask id="path-5-inside-1_0_1" fill="white">
<path d="M-360 -20H736V27H-360V-20Z"/>
</mask>
<path d="M-360 -20H736V27H-360V-20Z" fill="#FAFBFF"/>
<g id="title">
<g id="material-symbols:arrow-right" clip-path="url(#clip3_0_1)">
<path id="Vector" d="M5.96046e-07 0.5L10 0.5L5 5.5L5.96046e-07 0.5Z" fill="#818183"/>
</g>
</g>
<path d="M736 26.4H-360V27.6H736V26.4Z" fill="#BFBFBF" fill-opacity="0.4" mask="url(#path-5-inside-1_0_1)"/>
</g>
</g>
<rect x="-360.5" y="-20.5" width="1097" height="390" rx="8.5" stroke="#EEEEEE" stroke-opacity="0.7"/>
</g>
</g>
<rect x="-360.5" y="-88.5" width="1097" height="458" rx="8.5" stroke="#EEEEEE" stroke-opacity="0.7" shape-rendering="crispEdges"/>
</g>
</g>
<defs>
<filter id="filter0_d_0_1" x="-405" y="-133" width="1186" height="547" filterUnits="userSpaceOnUse" color-interpolation-filters="sRGB">
<feFlood flood-opacity="0" result="BackgroundImageFix"/>
<feColorMatrix in="SourceAlpha" type="matrix" values="0 0 0 0 0 0 0 0 0 0 0 0 0 0 0 0 0 0 127 0" result="hardAlpha"/>
<feOffset/>
<feGaussianBlur stdDeviation="22"/>
<feComposite in2="hardAlpha" operator="out"/>
<feColorMatrix type="matrix" values="0 0 0 0 0.8125 0 0 0 0 0.8125 0 0 0 0 0.8125 0 0 0 0.15 0"/>
<feBlend mode="normal" in2="BackgroundImageFix" result="effect1_dropShadow_0_1"/>
<feBlend mode="normal" in="SourceGraphic" in2="effect1_dropShadow_0_1" result="shape"/>
</filter>
<clipPath id="clip0_0_1">
<rect width="1440" height="1357" fill="white" transform="translate(-673 -942)"/>
</clipPath>
<clipPath id="clip1_0_1">
<rect x="-360" y="-88" width="1096" height="457" rx="8" fill="white"/>
</clipPath>
<clipPath id="clip2_0_1">
<rect x="-360" y="-20" width="1096" height="389" rx="8" fill="white"/>
</clipPath>
<clipPath id="clip3_0_1">
<rect width="5" height="10" fill="white" transform="matrix(0 1 -1 0 10 0.5)"/>
</clipPath>
</defs>
</svg>
