<svg width="20" height="20" viewBox="0 0 20 20" fill="none" xmlns="http://www.w3.org/2000/svg">
<path d="M18.3333 4.04167V13.95C18.3333 14.7583 17.675 15.5 16.8667 15.6L16.6083 15.6333C15.2417 15.8167 13.3167 16.3833 11.7667 17.0333C11.225 17.2583 10.625 16.85 10.625 16.2583V4.66667C10.625 4.35834 10.8 4.075 11.075 3.925C12.6 3.1 14.9083 2.36667 16.475 2.23334H16.525C17.525 2.23334 18.3333 3.04167 18.3333 4.04167Z" fill="#282828" fill-opacity="0.5"/>
<path d="M8.92499 3.925C7.39999 3.1 5.09166 2.36667 3.52499 2.23334H3.46666C2.46666 2.23334 1.65833 3.04167 1.65833 4.04167V13.95C1.65833 14.7583 2.31666 15.5 3.12499 15.6L3.38333 15.6333C4.74999 15.8167 6.67499 16.3833 8.22499 17.0333C8.76666 17.2583 9.36666 16.85 9.36666 16.2583V4.66667C9.36666 4.35 9.19999 4.075 8.92499 3.925ZM4.16666 6.45H6.04166C6.38333 6.45 6.66666 6.73334 6.66666 7.075C6.66666 7.425 6.38333 7.7 6.04166 7.7H4.16666C3.82499 7.7 3.54166 7.425 3.54166 7.075C3.54166 6.73334 3.82499 6.45 4.16666 6.45ZM6.66666 10.2H4.16666C3.82499 10.2 3.54166 9.925 3.54166 9.575C3.54166 9.23334 3.82499 8.95 4.16666 8.95H6.66666C7.00833 8.95 7.29166 9.23334 7.29166 9.575C7.29166 9.925 7.00833 10.2 6.66666 10.2Z" fill="#282828" fill-opacity="0.5"/>
</svg>
