<svg width="17" height="14" viewBox="0 0 17 14" fill="none" xmlns="http://www.w3.org/2000/svg">
<path fill-rule="evenodd" clip-rule="evenodd" d="M0 0.75C0 0.335786 0.335786 0 0.75 0H16.25C16.6642 0 17 0.335786 17 0.75C17 1.16421 16.6642 1.5 16.25 1.5H0.75C0.335786 1.5 0 1.16421 0 0.75ZM0 6.75C0 6.33579 0.335786 6 0.75 6H16.25C16.6642 6 17 6.33579 17 6.75C17 7.16421 16.6642 7.5 16.25 7.5H0.75C0.335786 7.5 0 7.16421 0 6.75ZM0.75 12C0.335786 12 0 12.3358 0 12.75C0 13.1642 0.335786 13.5 0.75 13.5H16.25C16.6642 13.5 17 13.1642 17 12.75C17 12.3358 16.6642 12 16.25 12H0.75Z" fill="#252A33"/>
</svg>
