<svg width="20" height="20" viewBox="0 0 20 20" fill="none" xmlns="http://www.w3.org/2000/svg">
<path d="M13.492 1.66602H6.50866C3.47533 1.66602 1.66699 3.47435 1.66699 6.50768V13.4827C1.66699 16.5243 3.47533 18.3327 6.50866 18.3327H13.4837C16.517 18.3327 18.3253 16.5243 18.3253 13.491V6.50768C18.3337 3.47435 16.5253 1.66602 13.492 1.66602ZM7.59199 14.0827C7.59199 14.316 7.40866 14.4993 7.17532 14.4993H4.85033C4.61699 14.4993 4.43366 14.316 4.43366 14.0827V10.2327C4.43366 9.70768 4.85866 9.28268 5.38366 9.28268H7.17532C7.40866 9.28268 7.59199 9.46602 7.59199 9.69935V14.0827ZM11.5753 14.0827C11.5753 14.316 11.392 14.4993 11.1587 14.4993H8.83366C8.60033 14.4993 8.41699 14.316 8.41699 14.0827V6.44935C8.41699 5.92435 8.84199 5.49935 9.36699 5.49935H10.6337C11.1587 5.49935 11.5837 5.92435 11.5837 6.44935V14.0827H11.5753ZM15.567 14.0827C15.567 14.316 15.3837 14.4993 15.1503 14.4993H12.8253C12.592 14.4993 12.4087 14.316 12.4087 14.0827V11.1243C12.4087 10.891 12.592 10.7077 12.8253 10.7077H14.617C15.142 10.7077 15.567 11.1327 15.567 11.6577V14.0827Z" fill="#282828" fill-opacity="0.5"/>
</svg>
