<svg width="20" height="20" viewBox="0 0 20 20" fill="none" xmlns="http://www.w3.org/2000/svg">
<g clip-path="url(#clip0_1_416)">
<path d="M18.3044 0H9.32101C8.57212 0 7.96503 0.607089 7.96503 1.35597V8.47481C7.96503 9.22369 8.57212 9.83078 9.32101 9.83078H14.0488C14.2176 9.83078 14.3742 9.94615 14.4013 10.1128C14.4359 10.3252 14.2728 10.5088 14.067 10.5088H12.8805C12.6932 10.5088 12.5415 10.6605 12.5415 10.8478V11.8464C12.5415 12.1107 12.8305 12.2733 13.0564 12.1362L17.1115 9.88002C17.1645 9.84781 17.2254 9.83078 17.2875 9.83078H18.6434C19.2051 9.83078 19.6604 9.37546 19.6604 8.8138V1.35597C19.6604 0.607089 19.0533 0 18.3044 0ZM10.5075 5.83297C10.354 5.83297 10.2068 5.77199 10.0982 5.66343L8.99658 4.56183C8.86416 4.42949 8.86416 4.21481 8.99658 4.08247C9.12892 3.95005 9.3436 3.95005 9.47594 4.08247L10.1685 4.77494V2.88144C10.1685 2.31978 10.6238 1.86446 11.1855 1.86446H17.1063C17.2868 1.86446 17.4445 2.00069 17.4562 2.18086C17.469 2.3783 17.3126 2.54244 17.1179 2.54244H11.1855C10.9982 2.54244 10.8465 2.69421 10.8465 2.88144V4.77494L11.5443 4.07718C11.6767 3.94476 11.8914 3.94476 12.0237 4.07718C12.1561 4.20952 12.1561 4.4242 12.0237 4.55653L10.9168 5.66344C10.8082 5.77199 10.661 5.83297 10.5075 5.83297ZM18.6315 5.74831C18.4991 5.88073 18.2845 5.88073 18.1521 5.74831L17.4569 5.05319V6.94934C17.4569 7.51014 17.0007 7.96632 16.4399 7.96632H10.5075C10.3203 7.96632 10.1685 7.81454 10.1685 7.62733C10.1685 7.44012 10.3203 7.28834 10.5075 7.28834H16.4399C16.6268 7.28834 16.7789 7.1363 16.7789 6.94934V5.05849L16.0837 5.75361C16.0175 5.81982 15.9308 5.85292 15.844 5.85292C15.7573 5.85292 15.6706 5.81982 15.6044 5.75361C15.4719 5.62127 15.4719 5.40659 15.6044 5.27425L16.8657 4.01296C16.9146 3.95801 16.9803 3.91878 17.0555 3.90472C17.0592 3.90397 17.0631 3.90417 17.0669 3.90355C17.0837 3.90103 17.1005 3.89843 17.1179 3.89843C17.1183 3.89843 17.1187 3.89855 17.1192 3.89855C17.2064 3.89821 17.2937 3.93119 17.3602 3.99774L18.6315 5.26896C18.7639 5.40128 18.7639 5.61596 18.6315 5.74831Z" fill="#939393"/>
<path d="M15.4873 17.915C15.4683 18.0404 15.393 18.1464 15.2808 18.2056L14.5127 18.6105L11.6262 15.7239C11.4938 15.5915 11.2792 15.5915 11.1468 15.7239C11.0144 15.8563 11.0144 16.0709 11.1468 16.2033L13.885 18.9415L12.5299 19.6558C11.7209 20.0822 10.7528 20.1144 9.94017 19.7418C8.07379 18.8856 6.13657 17.5048 4.48553 15.8538C2.83425 14.2025 1.45344 12.2653 0.59743 10.399C0.224748 9.58656 0.256945 8.61849 0.683503 7.80941L1.39783 6.45444L4.13595 9.19253C4.20216 9.25874 4.2889 9.29184 4.37563 9.29184C4.46237 9.29184 4.54918 9.25874 4.61539 9.19253C4.74773 9.06019 4.74773 8.84551 4.61539 8.71317L1.7288 5.8266L2.13367 5.05866C2.19285 4.94635 2.29878 4.87104 2.42433 4.85209C2.44469 4.84902 2.46488 4.84753 2.48492 4.84753C2.58887 4.84753 2.68785 4.88817 2.76309 4.9634L5.9987 8.19898C6.14427 8.34456 6.15462 8.57364 6.02286 8.7318L5.4657 9.40027C4.43481 10.6373 4.51609 12.4289 5.65473 13.5676L6.77178 14.6845C7.91043 15.8233 9.70199 15.9044 10.9391 14.8736L11.6076 14.3165C11.7658 14.1847 11.9948 14.1951 12.1403 14.3407L15.376 17.5761C15.4657 17.6659 15.5063 17.7894 15.4873 17.915Z" fill="#939393"/>
</g>
<defs>
<clipPath id="clip0_1_416">
<rect width="20" height="20" fill="white"/>
</clipPath>
</defs>
</svg>
