<svg width="24" height="25" viewBox="0 0 24 25" fill="none" xmlns="http://www.w3.org/2000/svg">
<g filter="url(#filter0_d_1_386)">
<path d="M18.6662 16.05H11.1078C10.7328 16.05 10.4245 15.7417 10.4245 15.3667C10.4245 14.9917 10.7328 14.6833 11.1078 14.6833H18.6662C19.0412 14.6833 19.3495 14.9917 19.3495 15.3667C19.3495 15.75 19.0412 16.05 18.6662 16.05Z" fill="#949494"/>
<path d="M18.6662 10.8083H11.1078C10.7328 10.8083 10.4245 10.5 10.4245 10.125C10.4245 9.74998 10.7328 9.44165 11.1078 9.44165H18.6662C19.0412 9.44165 19.3495 9.74998 19.3495 10.125C19.3495 10.5 19.0412 10.8083 18.6662 10.8083Z" fill="#949494"/>
<path d="M18.6662 5.55838H11.1078C10.7328 5.55838 10.4245 5.25004 10.4245 4.87504C10.4245 4.50004 10.7328 4.19171 11.1078 4.19171H18.6662C19.0412 4.19171 19.3495 4.50004 19.3495 4.87504C19.3495 5.25004 19.0412 5.55838 18.6662 5.55838Z" fill="#949494"/>
<path d="M6.09139 6.69168C5.90805 6.69168 5.73305 6.61668 5.60805 6.49168L4.84972 5.73335C4.58305 5.46668 4.58305 5.03335 4.84972 4.76668C5.11639 4.50002 5.54972 4.50002 5.81639 4.76668L6.09139 5.04168L7.87472 3.25835C8.14139 2.99168 8.57472 2.99168 8.84139 3.25835C9.10805 3.52502 9.10805 3.95835 8.84139 4.22502L6.57472 6.49168C6.44139 6.61668 6.27472 6.69168 6.09139 6.69168Z" fill="#949494"/>
<path d="M6.09139 11.9416C5.91639 11.9416 5.74139 11.875 5.60805 11.7416L4.84972 10.9833C4.58305 10.7166 4.58305 10.2833 4.84972 10.0166C5.11639 9.74996 5.54972 9.74996 5.81639 10.0166L6.09139 10.2916L7.87472 8.50829C8.14139 8.24162 8.57472 8.24162 8.84139 8.50829C9.10805 8.77496 9.10805 9.20829 8.84139 9.47496L6.57472 11.7416C6.44139 11.875 6.26639 11.9416 6.09139 11.9416Z" fill="#949494"/>
<path d="M6.09139 16.9416C5.91639 16.9416 5.74139 16.875 5.60805 16.7416L4.84972 15.9833C4.58305 15.7166 4.58305 15.2833 4.84972 15.0166C5.11639 14.75 5.54972 14.75 5.81639 15.0166L6.09139 15.2916L7.87472 13.5083C8.14139 13.2416 8.57472 13.2416 8.84139 13.5083C9.10805 13.775 9.10805 14.2083 8.84139 14.475L6.57472 16.7416C6.44139 16.875 6.26639 16.9416 6.09139 16.9416Z" fill="#949494"/>
</g>
<defs>
<filter id="filter0_d_1_386" x="-2" y="0" width="28" height="28" filterUnits="userSpaceOnUse" color-interpolation-filters="sRGB">
<feFlood flood-opacity="0" result="BackgroundImageFix"/>
<feColorMatrix in="SourceAlpha" type="matrix" values="0 0 0 0 0 0 0 0 0 0 0 0 0 0 0 0 0 0 127 0" result="hardAlpha"/>
<feOffset dy="4"/>
<feGaussianBlur stdDeviation="2"/>
<feComposite in2="hardAlpha" operator="out"/>
<feColorMatrix type="matrix" values="0 0 0 0 0 0 0 0 0 0 0 0 0 0 0 0 0 0 0.25 0"/>
<feBlend mode="normal" in2="BackgroundImageFix" result="effect1_dropShadow_1_386"/>
<feBlend mode="normal" in="SourceGraphic" in2="effect1_dropShadow_1_386" result="shape"/>
</filter>
</defs>
</svg>
