<svg width="20" height="20" viewBox="0 0 20 20" fill="none" xmlns="http://www.w3.org/2000/svg">
<path d="M18.3334 6.29167C18.3334 6.84167 17.8834 7.29167 17.3334 7.29167H2.66669C2.11669 7.29167 1.66669 6.84167 1.66669 6.29167V6.28334C1.66669 4.375 3.20835 2.83334 5.11669 2.83334H14.875C16.7834 2.83334 18.3334 4.38334 18.3334 6.29167Z" fill="#282828" fill-opacity="0.5"/>
<path d="M1.66669 9.54166V13.7167C1.66669 15.625 3.20835 17.1667 5.11669 17.1667H14.875C16.7834 17.1667 18.3334 15.6167 18.3334 13.7083V9.54166C18.3334 8.99166 17.8834 8.54166 17.3334 8.54166H2.66669C2.11669 8.54166 1.66669 8.99166 1.66669 9.54166ZM6.66669 14.375H5.00002C4.65835 14.375 4.37502 14.0917 4.37502 13.75C4.37502 13.4083 4.65835 13.125 5.00002 13.125H6.66669C7.00835 13.125 7.29169 13.4083 7.29169 13.75C7.29169 14.0917 7.00835 14.375 6.66669 14.375ZM12.0834 14.375H8.75002C8.40835 14.375 8.12502 14.0917 8.12502 13.75C8.12502 13.4083 8.40835 13.125 8.75002 13.125H12.0834C12.425 13.125 12.7084 13.4083 12.7084 13.75C12.7084 14.0917 12.425 14.375 12.0834 14.375Z" fill="#282828" fill-opacity="0.5"/>
</svg>
