<svg width="137" height="45" viewBox="0 0 137 45" fill="none" xmlns="http://www.w3.org/2000/svg">
<g clip-path="url(#clip0_1_461)">
<mask id="mask0_1_461" style="mask-type:luminance" maskUnits="userSpaceOnUse" x="-10" y="0" width="148" height="45">
<path d="M137.001 0H-9.00391V45H137.001V0Z" fill="white"/>
</mask>
<g mask="url(#mask0_1_461)">
<path d="M46.6515 29.9902V15.8555H48.8647V29.9902H46.6515ZM37.2871 29.9902V15.8555H39.5001V29.9902H37.2871ZM38.2501 23.993V21.893H47.6356V23.993H38.2501Z" fill="#111111"/>
<path d="M56.4827 30.193C55.5944 30.193 54.7814 29.9507 54.0437 29.4661C53.3201 28.9815 52.7393 28.3219 52.3019 27.4873C51.8652 26.6526 51.6465 25.7103 51.6465 24.6603C51.6465 23.5968 51.8652 22.6545 52.3019 21.8334C52.7528 20.9987 53.3542 20.3458 54.1054 19.8747C54.8702 19.4036 55.7243 19.168 56.6666 19.168C57.2268 19.168 57.7394 19.2487 58.2038 19.4103C58.6682 19.5718 59.0709 19.8006 59.4124 20.0968C59.7681 20.3795 60.0549 20.7093 60.2736 21.0862C60.5058 21.4632 60.6493 21.867 60.7039 22.2977L60.2325 22.1363V19.3901H62.3634V29.9911H60.2325V27.467L60.7239 27.3257C60.6422 27.6891 60.4717 28.0459 60.2119 28.3959C59.9662 28.7324 59.6452 29.0353 59.249 29.3046C58.8663 29.5738 58.436 29.7892 57.9575 29.9507C57.4931 30.1122 57.0017 30.193 56.4827 30.193ZM57.0358 28.2748C57.6777 28.2748 58.2444 28.1199 58.7364 27.8103C59.2284 27.5007 59.6105 27.0767 59.8839 26.5382C60.1707 25.9863 60.3141 25.3603 60.3141 24.6603C60.3141 23.9738 60.1707 23.3613 59.8839 22.8228C59.6105 22.2843 59.2284 21.8603 58.7364 21.5507C58.2444 21.241 57.6777 21.0862 57.0358 21.0862C56.4074 21.0862 55.8472 21.241 55.3551 21.5507C54.8772 21.8603 54.4945 22.2843 54.2077 22.8228C53.9343 23.3613 53.798 23.9738 53.798 24.6603C53.798 25.3603 53.9343 25.9863 54.2077 26.5382C54.4945 27.0767 54.8772 27.5007 55.3551 27.8103C55.8472 28.1199 56.4074 28.2748 57.0358 28.2748Z" fill="#111111"/>
<path d="M68.8798 30.1936C68.1144 30.1936 67.4454 30.0186 66.8717 29.6686C66.3115 29.3186 65.8741 28.8273 65.5602 28.1945C65.2592 27.5619 65.1094 26.808 65.1094 25.933V19.3906H67.2197V25.3676C67.2197 25.9869 67.3155 26.5253 67.5065 26.983C67.7117 27.4272 67.9986 27.7705 68.3671 28.0128C68.7498 28.2551 69.2078 28.3763 69.7404 28.3763C70.1366 28.3763 70.4987 28.3157 70.8267 28.1945C71.1541 28.0599 71.4345 27.8782 71.6667 27.6493C71.9124 27.4205 72.1034 27.1445 72.2404 26.8215C72.3768 26.4984 72.445 26.1484 72.445 25.7714V19.3906H74.5559V29.9917H72.445V27.7705L72.8142 27.5282C72.6502 28.0263 72.3704 28.4773 71.9742 28.8811C71.5915 29.2849 71.1335 29.608 70.6009 29.8503C70.0684 30.0791 69.4947 30.1936 68.8798 30.1936Z" fill="#111111"/>
<path d="M77.0664 29.9917V28.2551L82.6191 20.9455V21.1878H77.0664V19.3906H84.9146V21.0868L79.443 28.2955L79.3613 28.1945H85.0375V29.9917H77.0664Z" fill="#111111"/>
<path d="M87.7915 29.9902V19.3892H89.9018V29.9902H87.7915ZM88.8161 17.0469C88.3652 17.0469 88.0166 16.9324 87.7709 16.7036C87.5252 16.4748 87.4023 16.1517 87.4023 15.7344C87.4023 15.344 87.5252 15.0276 87.7709 14.7853C88.0307 14.543 88.3787 14.4219 88.8161 14.4219C89.267 14.4219 89.6149 14.5363 89.8613 14.7651C90.107 14.9939 90.2298 15.3171 90.2298 15.7344C90.2298 16.1248 90.0999 16.4411 89.8407 16.6834C89.595 16.9257 89.2535 17.0469 88.8161 17.0469Z" fill="#111111"/>
<path d="M96.7321 30.193C95.8303 30.193 95.0173 30.0382 94.2937 29.7286C93.5695 29.419 92.9681 28.9613 92.4902 28.3555L93.9246 27.1439C94.3343 27.6151 94.7787 27.9584 95.2566 28.1738C95.7486 28.3757 96.3018 28.4767 96.916 28.4767C97.1624 28.4767 97.3875 28.4498 97.5927 28.3959C97.8114 28.3286 97.9953 28.2343 98.1458 28.1132C98.3098 27.992 98.4327 27.8507 98.515 27.6891C98.5967 27.5141 98.6379 27.3257 98.6379 27.1238C98.6379 26.7738 98.5079 26.4911 98.2481 26.2757C98.1117 26.1814 97.8931 26.0805 97.5927 25.9728C97.3058 25.8517 96.9302 25.7305 96.4658 25.6093C95.6734 25.4074 95.0244 25.1786 94.5189 24.9228C94.0133 24.667 93.6242 24.3776 93.3508 24.0545C93.1456 23.7987 92.9958 23.5228 92.8999 23.2267C92.8041 22.917 92.7565 22.5805 92.7565 22.217C92.7565 21.7728 92.8524 21.3689 93.0434 21.0055C93.2486 20.6286 93.5213 20.3055 93.8628 20.0362C94.2185 19.7535 94.6282 19.5382 95.0926 19.3901C95.5705 19.242 96.076 19.168 96.6092 19.168C97.1141 19.168 97.6133 19.2353 98.1047 19.3699C98.6102 19.5045 99.0746 19.6997 99.4985 19.9555C99.9217 20.2112 100.277 20.5141 100.564 20.8641L99.355 22.1766C99.0952 21.9208 98.8083 21.6987 98.4944 21.5102C98.1934 21.3083 97.886 21.1535 97.5721 21.0459C97.2576 20.9382 96.9707 20.8843 96.7115 20.8843C96.4246 20.8843 96.1648 20.9112 95.9326 20.9651C95.7004 21.0189 95.5023 21.0997 95.3383 21.2074C95.1884 21.3151 95.072 21.4497 94.9903 21.6112C94.908 21.7728 94.8675 21.9545 94.8675 22.1564C94.881 22.3314 94.9221 22.4997 94.9903 22.6612C95.072 22.8093 95.1813 22.9372 95.3177 23.0449C95.4682 23.1526 95.694 23.267 95.9943 23.3881C96.2947 23.5093 96.6774 23.6237 97.1418 23.7314C97.8249 23.9065 98.3851 24.1016 98.8218 24.317C99.2727 24.519 99.6284 24.7545 99.8876 25.0237C100.161 25.2795 100.352 25.5757 100.461 25.9122C100.571 26.2488 100.625 26.6257 100.625 27.043C100.625 27.6488 100.448 28.194 100.093 28.6786C99.7512 29.1497 99.2868 29.5199 98.699 29.7892C98.1117 30.0584 97.4557 30.193 96.7321 30.193Z" fill="#111111"/>
<path d="M102.953 29.9912V15.0488H105.063V21.571L104.695 21.8133C104.831 21.3421 105.098 20.9114 105.494 20.521C105.89 20.1171 106.361 19.794 106.907 19.5517C107.454 19.2959 108.014 19.1681 108.588 19.1681C109.408 19.1681 110.091 19.3296 110.637 19.6527C111.183 19.9623 111.593 20.4402 111.866 21.0864C112.14 21.7325 112.276 22.547 112.276 23.5297V29.9912H110.166V23.671C110.166 23.0652 110.084 22.5671 109.92 22.1768C109.756 21.7729 109.503 21.4835 109.162 21.3085C108.82 21.12 108.396 21.0393 107.892 21.0662C107.481 21.0662 107.106 21.1335 106.764 21.2681C106.422 21.3893 106.122 21.5643 105.863 21.7931C105.617 22.0219 105.418 22.2912 105.269 22.6008C105.132 22.897 105.063 23.22 105.063 23.5701V29.9912H104.018C103.841 29.9912 103.663 29.9912 103.486 29.9912C103.308 29.9912 103.131 29.9912 102.953 29.9912Z" fill="#111111"/>
<path d="M119.278 30.193C118.389 30.193 117.576 29.9507 116.839 29.4661C116.115 28.9815 115.534 28.3219 115.097 27.4873C114.66 26.6526 114.441 25.7103 114.441 24.6603C114.441 23.5968 114.66 22.6545 115.097 21.8334C115.548 20.9987 116.149 20.3458 116.9 19.8747C117.665 19.4036 118.519 19.168 119.462 19.168C120.022 19.168 120.534 19.2487 120.999 19.4103C121.463 19.5718 121.866 19.8006 122.207 20.0968C122.563 20.3795 122.85 20.7093 123.069 21.0862C123.301 21.4632 123.444 21.867 123.499 22.2977L123.027 22.1363V19.3901H125.158V29.9911H123.027V27.467L123.519 27.3257C123.437 27.6891 123.266 28.0459 123.007 28.3959C122.761 28.7324 122.439 29.0353 122.044 29.3046C121.661 29.5738 121.231 29.7892 120.752 29.9507C120.288 30.1122 119.797 30.193 119.278 30.193ZM119.831 28.2748C120.473 28.2748 121.039 28.1199 121.531 27.8103C122.023 27.5007 122.405 27.0767 122.679 26.5382C122.966 25.9863 123.109 25.3603 123.109 24.6603C123.109 23.9738 122.966 23.3613 122.679 22.8228C122.405 22.2843 122.023 21.8603 121.531 21.5507C121.039 21.241 120.473 21.0862 119.831 21.0862C119.202 21.0862 118.642 21.241 118.15 21.5507C117.672 21.8603 117.289 22.2843 117.003 22.8228C116.729 23.3613 116.593 23.9738 116.593 24.6603C116.593 25.3603 116.729 25.9863 117.003 26.5382C117.289 27.0767 117.672 27.5007 118.15 27.8103C118.642 28.1199 119.202 28.2748 119.831 28.2748Z" fill="#111111"/>
<path d="M27.1735 0.28125H0.939337C-4.20483 0.28125 -8.375 4.39054 -8.375 9.45958V35.3108C-8.375 40.3799 -4.20483 44.4892 0.939337 44.4892H27.1735C32.3177 44.4892 36.4879 40.3799 36.4879 35.3108V9.45958C36.4879 4.39054 32.3177 0.28125 27.1735 0.28125Z" fill="white"/>
<path d="M27.7632 18.6379C24.3257 15.9938 20.8928 13.3407 17.442 10.7188C16.2485 11.6669 15.0326 12.5928 13.8302 13.5321C12.6054 12.5973 11.3851 11.658 10.1648 10.7188C6.76762 13.3495 3.36146 15.9715 -0.03125 18.6157C-0.0223096 22.9069 -0.0356875 27.2026 -0.0223091 31.4938C1.17564 31.4894 2.37809 31.4894 3.57603 31.4938C3.57603 32.6422 3.57603 33.7952 3.58497 34.9437C10.4062 34.9392 17.2229 34.9348 24.0442 34.9481C24.0442 34.9437 24.0442 34.9392 24.0442 34.9348L24.0575 34.9481V31.4938C25.2912 31.4938 26.5249 31.4894 27.7587 31.4894C27.7677 27.207 27.7632 22.9247 27.7632 18.6379ZM1.50199 19.3947C4.40749 17.1823 7.27722 14.9299 10.1648 12.7041C10.956 13.3006 11.7383 13.906 12.516 14.5203C12.3015 14.6805 12.0869 14.8408 11.8768 15.0055L7.2504 18.5088V20.9215C7.23252 22.5241 7.24146 24.131 7.2504 25.7336V29.8912C6.53073 29.8868 5.82 29.8868 5.10477 29.8912C5.10477 29.0989 5.10033 28.3021 5.10033 27.5097V20.3785C4.57285 20.7034 4.06775 21.0506 3.57159 21.4112C3.58497 24.2379 3.57603 27.0601 3.57603 29.8868C2.88769 29.8912 2.20378 29.9002 1.51537 29.909C1.47517 26.4058 1.50199 22.898 1.50199 19.3947ZM22.5691 27.5409V33.4124C16.7893 33.3768 10.88 33.3723 5.10477 33.4124C5.10033 33.0874 5.10477 32.7936 5.10477 32.4865V31.5383C6.37424 31.5072 7.63927 31.4938 8.90874 31.4849H13.8526C16.0518 31.4938 18.2555 31.5027 20.4548 31.4849C20.4503 27.8703 20.4548 24.2557 20.4503 20.6411C21.1834 21.1708 21.8941 21.7183 22.5691 22.3193V27.5409ZM26.1585 29.8957C25.4567 29.8912 24.7549 29.8912 24.0575 29.8912V25.6534V21.4201C21.3934 19.3947 18.774 17.3158 16.1144 15.2815C15.6718 15.6198 15.2472 15.9715 14.836 16.341C16.2171 17.3514 17.5582 18.4153 18.9215 19.4481C18.9305 22.9292 18.9394 26.4102 18.9171 29.8957C15.5511 29.8824 12.1763 29.8957 8.8104 29.8868C8.79702 26.4102 8.83722 22.9292 8.79252 19.4481C11.6444 17.1512 14.5767 14.9565 17.4554 12.6952L20.1284 14.7429C22.131 16.2875 24.1246 17.8455 26.1585 19.3413V29.8957Z" fill="#111111"/>
<path d="M13.6604 21.4531H11.4434V23.5542H13.6604V21.4531Z" fill="#0D6EFD"/>
<path d="M16.2894 21.4531H14.0723V23.5542H16.2894V21.4531Z" fill="#0D6EFD"/>
<path d="M13.6604 23.9492H11.4434V26.0503H13.6604V23.9492Z" fill="#0D6EFD"/>
<path d="M16.2894 23.9492H14.0723V26.0503H16.2894V23.9492Z" fill="#0D6EFD"/>
</g>
</g>
<defs>
<clipPath id="clip0_1_461">
<rect width="137" height="45" fill="white"/>
</clipPath>
</defs>
</svg>
