<svg width="20" height="20" viewBox="0 0 20 20" fill="none" xmlns="http://www.w3.org/2000/svg">
<path d="M14.6084 6.475C14.55 6.46666 14.4917 6.46666 14.4334 6.475C13.1417 6.43333 12.1167 5.375 12.1167 4.075C12.1167 2.75 13.1917 1.66666 14.525 1.66666C15.85 1.66666 16.9334 2.74166 16.9334 4.075C16.925 5.375 15.9 6.43333 14.6084 6.475Z" fill="#282828" fill-opacity="0.5"/>
<path d="M17.3251 12.2503C16.3918 12.8753 15.0834 13.1087 13.8751 12.9503C14.1918 12.267 14.3584 11.5087 14.3668 10.7087C14.3668 9.87534 14.1834 9.08367 13.8334 8.392C15.0668 8.22534 16.3751 8.45867 17.3168 9.08367C18.6334 9.95034 18.6334 11.3753 17.3251 12.2503Z" fill="#282828" fill-opacity="0.5"/>
<path d="M5.36678 6.475C5.42511 6.46666 5.48344 6.46666 5.54178 6.475C6.83344 6.43333 7.85844 5.375 7.85844 4.075C7.85844 2.74166 6.78344 1.66666 5.45011 1.66666C4.12511 1.66666 3.05011 2.74166 3.05011 4.075C3.05011 5.375 4.07511 6.43333 5.36678 6.475Z" fill="#282828" fill-opacity="0.5"/>
<path d="M5.45843 10.7088C5.45843 11.5172 5.63343 12.2838 5.9501 12.9755C4.7751 13.1005 3.5501 12.8505 2.6501 12.2588C1.33343 11.3838 1.33343 9.95883 2.6501 9.08383C3.54176 8.48383 4.8001 8.24216 5.98343 8.37549C5.64176 9.07549 5.45843 9.86716 5.45843 10.7088Z" fill="#282828" fill-opacity="0.5"/>
<path d="M10.0998 13.225C10.0332 13.2167 9.95815 13.2167 9.88315 13.225C8.34982 13.175 7.12482 11.9167 7.12482 10.3667C7.13315 8.78333 8.40815 7.5 9.99982 7.5C11.5832 7.5 12.8665 8.78333 12.8665 10.3667C12.8582 11.9167 11.6415 13.175 10.0998 13.225Z" fill="#282828" fill-opacity="0.5"/>
<path d="M7.3915 14.9505C6.13317 15.7922 6.13317 17.1755 7.3915 18.0089C8.82484 18.9672 11.1748 18.9672 12.6082 18.0089C13.8665 17.1672 13.8665 15.7839 12.6082 14.9505C11.1832 13.9922 8.83317 13.9922 7.3915 14.9505Z" fill="#282828" fill-opacity="0.5"/>
</svg>
